<?xml version="1.0" encoding="UTF-8"?>
<svg version="1.1" viewBox="0 0 1280 1280" width="320" height="320" xmlns="http://www.w3.org/2000/svg">
<path transform="translate(0)" d="m0 0h1280v1280h-1280z" fill="#25466D"/>
<path transform="translate(382,344)" d="m0 0h402l14 2 11 6 7 6 7 12 2 7v413l-2 9-7 12-9 8-12 5-6 1h-412l-11-4-8-6-8-9-4-8-2-10v-410l3-10 7-10 9-8 11-5z" fill="#25466D"/>
<path transform="translate(382,344)" d="m0 0h402l14 2 11 6 7 6 7 12 2 7v413l-2 9-7 12-9 8-12 5-6 1h-412l-11-4-8-6-8-9-4-8-2-10v-410l3-10 7-10 9-8 11-5zm4 40-1 1v399h399v-400z" fill="#8195AA"/>
<path transform="translate(878,465)" d="m0 0h12l6 3 5 5 3 4 1 4v384l-2 13-6 11-7 7-12 6-12 3h-386l-8-5-6-7-2-7 1-8 4-6 7-6 2-1 97-1h289l-1-120v-158l1-105 4-8 8-7z" fill="#8195AA"/>
<path transform="translate(718,465)" d="m0 0h12l6 3 7 8 2 5v8l-4 8-12 13-167 167-11 7-3 1h-7l-8-4-13-11-88-88-6-9-2-10 3-8 6-7 6-3h10l8 4 12 11 75 75h2l167-167z" fill="#8195AA"/>
</svg>
